<svg xmlns="http://www.w3.org/2000/svg" width="232" height="154"><defs><clipPath id="a"><path d="M69 39.125h161v98.75H69z"/></clipPath></defs><g clip-path="url(#clip-10046)"><path fill="#d6dfe8" d="M71 105.75l160.75 32-40 37.25-228.083 3.666z"/></g><path fill="#fc0" d="M69 39.125h161v98.75H69z"/><g style="opacity: 0;" clip-path="url(#a)" opacity=".2"><path fill="#b39006" d="M86.334 74.517c-6.625 4.1-9.958-3.792-13.816-8.662-1.34-1.69-2.742-2.186-4.367-2.52 1.18-.81 1.889-1.195 2.71-1.437 1.412-.417 2.496-.108 3.48.317 5.055 2.182 6.038 10.91 11.993 12.302zm64.488-4.29v.858c-21.474.659-14.09 27.144-31.752 34.327-5.44 2.212-17.285 3.625-26.014-1.716 26.81-2.042 27.75-47.902 57.766-33.47zM70.564 89.134c-11.624-2.865-14.857 3.419-23.01.83 6.785-7.724 17.9-7.239 25.64-2.867 6.959 3.931 11.233 4.64 16.411 2.868-13.194-.68-12.456-8.32-22.312-11.478-16.602-5.32-36.047 17.208-43.07-.537 12.805 3.881 19.776-4.738 31.055-5.15 18.378-.668 36.28 20.944 54.924 5.15-3.707-4.533-13.343-4.96-20.597-3.433 5.345-8.665 24.77-5.84 25.745 2.575 1.049 9.037-20.194 24.364-33.469 19.738-5.122-1.785-3.896-3.806-11.317-7.696zm-3.27 24.86c-5.225-2.112-5.56-8.955-6.527-15.323-.09-.584-.237-1.27-.34-1.841-.302-.466-.357-.964-1.26-1.473-1.987-1.121-5.512.576-7.321-1.101 2.455-2.36 9.639-2.334 12.014 0 1.32 1.74.843 5.543.843 9.747 0 1.11-.028 3.182 1.65 2.74 5.998-1.624 10.29-4.954 18.962-3.906-10.292 14.876-18.028 11.157-18.022 11.157z"/></g><path fill="#ffda47" d="M68.961 39h161.14L214.065-.09H84.997z"/><path fill="#d51d1d" d="M103.928 82h91.143v22.214H103.93z"/><text dominant-baseline="text-before-edge" style="text-transform:uppercase;line-height:142.99626px" fill="#fff" font-family="'dana-black','dana-black'" font-size="12" font-style="none" font-weight="400" transform="translate(109 85)"><tspan style="font-kerning:normal" letter-spacing=".96">B</tspan><tspan style="font-kerning:normal" letter-spacing=".96">EHIN STORE</tspan></text><path fill="#dcb930" d="M149-.084h1v39h-1z"/><path fill="#2e3743" d="M216.14 59.47v3.824h1.984a.294.294 0 010 .588h-4.26a.294.294 0 010-.588h1.689v-3.77c-1.322-.04-2.645-1.277-2.645-2.742v-2.549c0-.162.205-.35.367-.35h5.437c.162 0 .22.188.22.35v2.55c0 1.512-1.102 2.688-2.548 2.688zm-.446-.587h.69c1.103 0 1.96-.932 1.96-2.1V54.47h-4.848v2.311c0 1.149 1.066 2.1 2.198 2.1z"/><path fill="#2e3743" d="M216.731 53.888h.823l-.823 1.902h-.822zm0 1.902h-.822l.925 1.08h.309z"/><path fill="#2e3743" d="M215.909 57.949l.925-1.08h.309zm-10.995-3.987l-1.81 1.811a.283.283 0 00.4.4l1.327-1.327v6.893a.283.283 0 00.566 0v-6.893l1.327 1.328a.282.282 0 10.4-.4l-1.81-1.812a.282.282 0 00-.4 0zm-5.207 0l-1.81 1.811a.283.283 0 00.4.4l1.327-1.327v6.893a.283.283 0 00.566 0v-6.893l1.326 1.328a.282.282 0 10.4-.4l-1.81-1.812a.282.282 0 00-.4 0zm8.313 9.588c0 .184-.15.333-.334.333h-10.345a.333.333 0 110-.666h10.345c.184 0 .333.15.333.333zm-24.315-4.976a4.993 4.993 0 014.624-4.122v-.322a.294.294 0 01.587 0v.322c2.323.135 4.267 1.856 4.663 4.122.06.105.074.203.074.273a.294.294 0 01-.293.294c-.111 0-.305-.078-.33-.272l-.008-.056c-.13-.102-.516-.26-1.13-.26-.717 0-1.124.215-1.175.305a.294.294 0 01-.293.283.293.293 0 01-.307-.278c-.107-.095-.518-.262-1.2-.3v4.121c0 .648-.528 1.175-1.175 1.175a1.176 1.176 0 01-1.175-1.175v-.293a.294.294 0 01.587 0v.293a.588.588 0 001.175 0v-4.122c-.663.04-1.06.203-1.161.297v.003a.294.294 0 01-.293.28.296.296 0 01-.308-.284c-.051-.09-.458-.304-1.174-.304-.615 0-1 .157-1.131.259l-.007.051c-.024.186-.211.277-.33.277a.294.294 0 01-.294-.294c0-.07.015-.168.074-.273zm6.95-.376c.363-.168.831-.232 1.237-.232.35 0 .686.046.967.13a4.44 4.44 0 00-3.121-2.925c.552.808.818 2.05.918 3.027zm-2.032-.232c.463 0 1.009.059 1.44.217-.216-1.977-.908-3.153-1.44-3.153-.553 0-1.198 1.238-1.403 3.145.385-.142.895-.209 1.403-.209zm-3.23 0c.403 0 .871.063 1.235.232.096-.967.35-2.218.888-3.027a4.422 4.422 0 00-3.091 2.926 3.41 3.41 0 01.968-.13z"/></svg>